<svg width="128" height="128" viewBox="0 0 128 128" fill="none" xmlns="http://www.w3.org/2000/svg">
<rect width="128" height="128" fill="#203451"/>
<path d="M42 76.9184C42 86.056 49.8976 94 64.5 94C80.8711 94 87 84.9858 87 76.4656C87 62.5533 75.5238 59.919 64.5 58.6019C58.659 57.9433 51.4607 56.832 51.4607 49.917C51.4607 44.2368 56.9314 40.1619 63.5951 40.1619C71.0814 40.1619 76.3053 44.4838 76.3053 50.0816C76.3053 50.3698 76.4287 50.4933 76.7166 50.5344H84.3263C84.6143 50.4933 84.7377 50.3698 84.7377 50.0816C84.2852 38.5155 74.1664 33 63.5951 33C53.3117 33 43.0283 39.0918 43.0283 49.917C42.9872 62.9649 55.1216 65.6815 64.5 66.6282C71.8629 67.2868 78.5676 68.9744 78.5676 76.4656C78.5676 82.0634 73.5082 86.8381 64.5 86.8381C54.9982 86.8381 50.4324 81.2814 50.4324 77.0007C50.4324 76.6302 50.2678 76.4656 49.9388 76.4656H42.4525C42.1645 76.5067 42 76.6302 42 76.9184Z" fill="#DADCE0"/>
</svg>
